<svg width="151" height="18" viewBox="0 0 151 18" fill="none" xmlns="http://www.w3.org/2000/svg">
<path d="M0.6 17.64C0.424 17.64 0.28 17.584 0.168 17.472C0.0560001 17.36 0 17.216 0 17.04V1.44C0 1.264 0.0560001 1.12 0.168 1.008C0.28 0.895999 0.424 0.839999 0.6 0.839999H7.92C9.296 0.839999 10.424 1.032 11.304 1.416C12.184 1.8 12.832 2.352 13.248 3.072C13.68 3.776 13.896 4.616 13.896 5.592C13.896 6.168 13.784 6.68 13.56 7.128C13.352 7.56 13.088 7.92 12.768 8.208C12.464 8.496 12.176 8.704 11.904 8.832C12.512 9.12 13.048 9.592 13.512 10.248C13.992 10.904 14.232 11.672 14.232 12.552C14.232 13.608 13.992 14.52 13.512 15.288C13.048 16.04 12.36 16.624 11.448 17.04C10.552 17.44 9.448 17.64 8.136 17.64H0.6ZM4.296 14.52H7.656C8.344 14.52 8.864 14.32 9.216 13.92C9.568 13.52 9.744 13.064 9.744 12.552C9.744 11.992 9.56 11.52 9.192 11.136C8.84 10.752 8.328 10.56 7.656 10.56H4.296V14.52ZM4.296 7.512H7.44C8.096 7.512 8.584 7.344 8.904 7.008C9.24 6.672 9.408 6.24 9.408 5.712C9.408 5.2 9.24 4.784 8.904 4.464C8.584 4.128 8.096 3.96 7.44 3.96H4.296V7.512Z" fill="#161C2D"/>
<path d="M17.1011 17.64C16.9251 17.64 16.7811 17.584 16.6691 17.472C16.5571 17.36 16.5011 17.216 16.5011 17.04V5.76C16.5011 5.6 16.5571 5.464 16.6691 5.352C16.7811 5.224 16.9251 5.16 17.1011 5.16H19.8611C20.0371 5.16 20.1811 5.224 20.2931 5.352C20.4051 5.464 20.4611 5.6 20.4611 5.76V6.72C20.8931 6.224 21.4051 5.84 21.9971 5.568C22.6051 5.296 23.2851 5.16 24.0371 5.16H25.0931C25.2531 5.16 25.3891 5.216 25.5011 5.328C25.6291 5.44 25.6931 5.584 25.6931 5.76V8.232C25.6931 8.392 25.6291 8.536 25.5011 8.664C25.3891 8.776 25.2531 8.832 25.0931 8.832H22.7651C22.1091 8.832 21.5971 9.016 21.2291 9.384C20.8771 9.736 20.7011 10.24 20.7011 10.896V17.04C20.7011 17.216 20.6371 17.36 20.5091 17.472C20.3971 17.584 20.2531 17.64 20.0771 17.64H17.1011Z" fill="#161C2D"/>
<path d="M30.7993 17.88C29.9353 17.88 29.1593 17.72 28.4713 17.4C27.7993 17.064 27.2633 16.616 26.8633 16.056C26.4633 15.496 26.2633 14.864 26.2633 14.16C26.2633 13.024 26.7273 12.128 27.6553 11.472C28.5833 10.8 29.8153 10.344 31.3513 10.104L34.3513 9.648V9.312C34.3513 8.736 34.2313 8.296 33.9913 7.992C33.7513 7.688 33.3113 7.536 32.6713 7.536C32.2233 7.536 31.8553 7.624 31.5673 7.8C31.2953 7.976 31.0793 8.216 30.9193 8.52C30.7753 8.728 30.5753 8.832 30.3193 8.832H27.6313C27.4553 8.832 27.3193 8.784 27.2233 8.688C27.1273 8.576 27.0873 8.448 27.1033 8.304C27.1033 8.016 27.2073 7.688 27.4153 7.32C27.6393 6.936 27.9753 6.56 28.4233 6.192C28.8713 5.824 29.4473 5.52 30.1513 5.28C30.8553 5.04 31.7033 4.92 32.6953 4.92C33.7353 4.92 34.6233 5.04 35.3593 5.28C36.0953 5.52 36.6873 5.856 37.1353 6.288C37.5993 6.72 37.9433 7.232 38.1673 7.824C38.3913 8.4 38.5033 9.04 38.5033 9.744V17.04C38.5033 17.216 38.4393 17.36 38.3113 17.472C38.1993 17.584 38.0633 17.64 37.9033 17.64H35.1193C34.9433 17.64 34.7993 17.584 34.6873 17.472C34.5753 17.36 34.5193 17.216 34.5193 17.04V16.2C34.3113 16.504 34.0313 16.784 33.6793 17.04C33.3273 17.296 32.9113 17.496 32.4313 17.64C31.9673 17.8 31.4233 17.88 30.7993 17.88ZM31.9273 15.144C32.3913 15.144 32.8073 15.048 33.1753 14.856C33.5593 14.648 33.8553 14.336 34.0633 13.92C34.2873 13.488 34.3993 12.952 34.3993 12.312V11.976L32.3593 12.336C31.6073 12.464 31.0553 12.664 30.7033 12.936C30.3673 13.192 30.1993 13.496 30.1993 13.848C30.1993 14.12 30.2793 14.352 30.4393 14.544C30.5993 14.736 30.8073 14.888 31.0633 15C31.3193 15.096 31.6073 15.144 31.9273 15.144Z" fill="#161C2D"/>
<path d="M41.6782 17.64C41.5022 17.64 41.3582 17.584 41.2462 17.472C41.1342 17.36 41.0782 17.216 41.0782 17.04V5.76C41.0782 5.584 41.1342 5.44 41.2462 5.328C41.3582 5.216 41.5022 5.16 41.6782 5.16H44.5102C44.6702 5.16 44.8062 5.216 44.9182 5.328C45.0462 5.44 45.1102 5.584 45.1102 5.76V17.04C45.1102 17.216 45.0462 17.36 44.9182 17.472C44.8062 17.584 44.6702 17.64 44.5102 17.64H41.6782ZM41.6542 3.36C41.4782 3.36 41.3342 3.304 41.2222 3.192C41.1102 3.08 41.0542 2.936 41.0542 2.76V0.623999C41.0542 0.447999 41.1102 0.303999 41.2222 0.191999C41.3342 0.0639997 41.4782 0 41.6542 0H44.5102C44.6862 0 44.8302 0.0639997 44.9422 0.191999C45.0702 0.303999 45.1342 0.447999 45.1342 0.623999V2.76C45.1342 2.936 45.0702 3.08 44.9422 3.192C44.8302 3.304 44.6862 3.36 44.5102 3.36H41.6542Z" fill="#161C2D"/>
<path d="M49.1386 17.64C48.9626 17.64 48.8186 17.584 48.7066 17.472C48.5946 17.36 48.5386 17.216 48.5386 17.04V5.76C48.5386 5.584 48.5946 5.44 48.7066 5.328C48.8186 5.216 48.9626 5.16 49.1386 5.16H51.8986C52.0746 5.16 52.2186 5.216 52.3306 5.328C52.4426 5.44 52.4986 5.584 52.4986 5.76V6.672C52.9146 6.176 53.4586 5.76 54.1306 5.424C54.8026 5.088 55.5946 4.92 56.5066 4.92C57.4346 4.92 58.2506 5.128 58.9546 5.544C59.6746 5.96 60.2346 6.576 60.6346 7.392C61.0506 8.192 61.2586 9.176 61.2586 10.344V17.04C61.2586 17.216 61.1946 17.36 61.0666 17.472C60.9546 17.584 60.8186 17.64 60.6586 17.64H57.6346C57.4746 17.64 57.3306 17.584 57.2026 17.472C57.0906 17.36 57.0346 17.216 57.0346 17.04V10.488C57.0346 9.736 56.8506 9.16 56.4826 8.76C56.1306 8.344 55.6026 8.136 54.8986 8.136C54.2426 8.136 53.7146 8.344 53.3146 8.76C52.9306 9.16 52.7386 9.736 52.7386 10.488V17.04C52.7386 17.216 52.6746 17.36 52.5466 17.472C52.4346 17.584 52.2986 17.64 52.1386 17.64H49.1386Z" fill="#161C2D"/>
<path d="M67.0728 17.64C66.8328 17.64 66.6568 17.584 66.5448 17.472C66.4328 17.36 66.3448 17.216 66.2808 17.04L62.8248 5.928C62.7928 5.848 62.7768 5.768 62.7768 5.688C62.7768 5.544 62.8328 5.424 62.9448 5.328C63.0568 5.216 63.1848 5.16 63.3288 5.16H65.8008C66.0088 5.16 66.1688 5.216 66.2808 5.328C66.4088 5.44 66.4888 5.552 66.5208 5.664L68.5368 12.528L70.6968 5.688C70.7288 5.576 70.8008 5.464 70.9128 5.352C71.0408 5.224 71.2168 5.16 71.4408 5.16H73.0248C73.2488 5.16 73.4168 5.224 73.5288 5.352C73.6568 5.464 73.7368 5.576 73.7688 5.688L75.9288 12.528L77.9448 5.664C77.9768 5.552 78.0488 5.44 78.1608 5.328C78.2888 5.216 78.4568 5.16 78.6648 5.16H81.1368C81.2808 5.16 81.4008 5.216 81.4968 5.328C81.6088 5.424 81.6648 5.544 81.6648 5.688C81.6648 5.768 81.6568 5.848 81.6408 5.928L78.1848 17.04C78.1368 17.216 78.0488 17.36 77.9208 17.472C77.8088 17.584 77.6328 17.64 77.3928 17.64H75.2328C75.0088 17.64 74.8328 17.584 74.7048 17.472C74.5768 17.36 74.4888 17.216 74.4408 17.04L72.2328 10.464L70.0248 17.04C69.9768 17.216 69.8888 17.36 69.7608 17.472C69.6328 17.584 69.4568 17.64 69.2328 17.64H67.0728Z" fill="#161C2D"/>
<path d="M86.8909 17.88C86.0269 17.88 85.2509 17.72 84.5629 17.4C83.8909 17.064 83.3549 16.616 82.9549 16.056C82.5549 15.496 82.3549 14.864 82.3549 14.16C82.3549 13.024 82.8189 12.128 83.7469 11.472C84.6749 10.8 85.9069 10.344 87.4429 10.104L90.4429 9.648V9.312C90.4429 8.736 90.3229 8.296 90.0829 7.992C89.8429 7.688 89.4029 7.536 88.7629 7.536C88.3149 7.536 87.9469 7.624 87.6589 7.8C87.3869 7.976 87.1709 8.216 87.0109 8.52C86.8669 8.728 86.6669 8.832 86.4109 8.832H83.7229C83.5469 8.832 83.4109 8.784 83.3149 8.688C83.2189 8.576 83.1789 8.448 83.1949 8.304C83.1949 8.016 83.2989 7.688 83.5069 7.32C83.7309 6.936 84.0669 6.56 84.5149 6.192C84.9629 5.824 85.5389 5.52 86.2429 5.28C86.9469 5.04 87.7949 4.92 88.7869 4.92C89.8269 4.92 90.7149 5.04 91.4509 5.28C92.1869 5.52 92.7789 5.856 93.2269 6.288C93.6909 6.72 94.0349 7.232 94.2589 7.824C94.4829 8.4 94.5949 9.04 94.5949 9.744V17.04C94.5949 17.216 94.5309 17.36 94.4029 17.472C94.2909 17.584 94.1549 17.64 93.9949 17.64H91.2109C91.0349 17.64 90.8909 17.584 90.7789 17.472C90.6669 17.36 90.6109 17.216 90.6109 17.04V16.2C90.4029 16.504 90.1229 16.784 89.7709 17.04C89.4189 17.296 89.0029 17.496 88.5229 17.64C88.0589 17.8 87.5149 17.88 86.8909 17.88ZM88.0189 15.144C88.4829 15.144 88.8989 15.048 89.2669 14.856C89.6509 14.648 89.9469 14.336 90.1549 13.92C90.3789 13.488 90.4909 12.952 90.4909 12.312V11.976L88.4509 12.336C87.6989 12.464 87.1469 12.664 86.7949 12.936C86.4589 13.192 86.2909 13.496 86.2909 13.848C86.2909 14.12 86.3709 14.352 86.5309 14.544C86.6909 14.736 86.8989 14.888 87.1549 15C87.4109 15.096 87.6989 15.144 88.0189 15.144Z" fill="#161C2D"/>
<path d="M101.258 17.64C101.018 17.64 100.842 17.584 100.73 17.472C100.618 17.344 100.522 17.2 100.442 17.04L95.9063 5.904C95.8743 5.84 95.8583 5.768 95.8583 5.688C95.8583 5.544 95.9063 5.424 96.0023 5.328C96.1143 5.216 96.2503 5.16 96.4103 5.16H99.1223C99.3303 5.16 99.4903 5.216 99.6023 5.328C99.7143 5.44 99.7863 5.552 99.8183 5.664L102.53 13.032L105.266 5.664C105.298 5.552 105.37 5.44 105.482 5.328C105.594 5.216 105.754 5.16 105.962 5.16H108.674C108.818 5.16 108.946 5.216 109.058 5.328C109.17 5.424 109.226 5.544 109.226 5.688C109.226 5.768 109.21 5.84 109.178 5.904L104.642 17.04C104.578 17.2 104.482 17.344 104.354 17.472C104.242 17.584 104.058 17.64 103.802 17.64H101.258Z" fill="#161C2D"/>
<path d="M116.25 17.88C114.362 17.88 112.858 17.368 111.738 16.344C110.618 15.32 110.034 13.8 109.986 11.784C109.986 11.672 109.986 11.528 109.986 11.352C109.986 11.176 109.986 11.04 109.986 10.944C110.034 9.68 110.314 8.6 110.826 7.704C111.354 6.792 112.074 6.104 112.986 5.64C113.914 5.16 114.994 4.92 116.226 4.92C117.634 4.92 118.794 5.2 119.706 5.76C120.634 6.32 121.33 7.08 121.794 8.04C122.258 9 122.49 10.096 122.49 11.328V11.904C122.49 12.08 122.426 12.224 122.298 12.336C122.186 12.448 122.05 12.504 121.89 12.504H114.21C114.21 12.52 114.21 12.544 114.21 12.576C114.21 12.608 114.21 12.64 114.21 12.672C114.226 13.136 114.306 13.56 114.45 13.944C114.594 14.328 114.818 14.632 115.122 14.856C115.426 15.08 115.794 15.192 116.226 15.192C116.546 15.192 116.81 15.144 117.018 15.048C117.242 14.936 117.426 14.816 117.57 14.688C117.714 14.544 117.826 14.424 117.906 14.328C118.05 14.168 118.162 14.072 118.242 14.04C118.338 13.992 118.482 13.968 118.674 13.968H121.65C121.81 13.968 121.938 14.016 122.034 14.112C122.146 14.192 122.194 14.312 122.178 14.472C122.162 14.744 122.026 15.072 121.77 15.456C121.514 15.84 121.138 16.224 120.642 16.608C120.162 16.976 119.554 17.28 118.818 17.52C118.082 17.76 117.226 17.88 116.25 17.88ZM114.21 10.128H118.266V10.08C118.266 9.568 118.186 9.12 118.026 8.736C117.882 8.352 117.65 8.056 117.33 7.848C117.026 7.64 116.658 7.536 116.226 7.536C115.794 7.536 115.426 7.64 115.122 7.848C114.834 8.056 114.61 8.352 114.45 8.736C114.29 9.12 114.21 9.568 114.21 10.08V10.128Z" fill="#161C2D"/>
<path d="M125.086 17.64C124.91 17.64 124.766 17.584 124.654 17.472C124.542 17.36 124.486 17.216 124.486 17.04V13.992C124.486 13.832 124.542 13.696 124.654 13.584C124.766 13.456 124.91 13.392 125.086 13.392H128.11C128.286 13.392 128.43 13.456 128.542 13.584C128.67 13.696 128.734 13.832 128.734 13.992V17.04C128.734 17.216 128.67 17.36 128.542 17.472C128.43 17.584 128.286 17.64 128.11 17.64H125.086Z" fill="#161C2D"/>
<path d="M131.893 17.64C131.717 17.64 131.573 17.584 131.461 17.472C131.349 17.36 131.293 17.216 131.293 17.04V5.76C131.293 5.584 131.349 5.44 131.461 5.328C131.573 5.216 131.717 5.16 131.893 5.16H134.725C134.885 5.16 135.021 5.216 135.133 5.328C135.261 5.44 135.325 5.584 135.325 5.76V17.04C135.325 17.216 135.261 17.36 135.133 17.472C135.021 17.584 134.885 17.64 134.725 17.64H131.893ZM131.869 3.36C131.693 3.36 131.549 3.304 131.437 3.192C131.325 3.08 131.269 2.936 131.269 2.76V0.623999C131.269 0.447999 131.325 0.303999 131.437 0.191999C131.549 0.0639997 131.693 0 131.869 0H134.725C134.901 0 135.045 0.0639997 135.157 0.191999C135.285 0.303999 135.349 0.447999 135.349 0.623999V2.76C135.349 2.936 135.285 3.08 135.157 3.192C135.045 3.304 134.901 3.36 134.725 3.36H131.869Z" fill="#161C2D"/>
<path d="M144.025 17.88C142.681 17.88 141.545 17.664 140.617 17.232C139.705 16.8 139.001 16.184 138.505 15.384C138.025 14.568 137.753 13.6 137.689 12.48C137.673 12.16 137.665 11.8 137.665 11.4C137.665 10.984 137.673 10.624 137.689 10.32C137.753 9.184 138.041 8.216 138.553 7.416C139.065 6.616 139.777 6 140.689 5.568C141.617 5.136 142.729 4.92 144.025 4.92C145.337 4.92 146.449 5.136 147.361 5.568C148.289 6 149.009 6.616 149.521 7.416C150.033 8.216 150.321 9.184 150.385 10.32C150.401 10.624 150.409 10.984 150.409 11.4C150.409 11.8 150.401 12.16 150.385 12.48C150.321 13.6 150.041 14.568 149.545 15.384C149.065 16.184 148.361 16.8 147.433 17.232C146.521 17.664 145.385 17.88 144.025 17.88ZM144.025 14.952C144.745 14.952 145.265 14.736 145.585 14.304C145.921 13.872 146.113 13.224 146.161 12.36C146.177 12.12 146.185 11.8 146.185 11.4C146.185 11 146.177 10.68 146.161 10.44C146.113 9.592 145.921 8.952 145.585 8.52C145.265 8.072 144.745 7.848 144.025 7.848C143.321 7.848 142.801 8.072 142.465 8.52C142.129 8.952 141.945 9.592 141.913 10.44C141.897 10.68 141.889 11 141.889 11.4C141.889 11.8 141.897 12.12 141.913 12.36C141.945 13.224 142.129 13.872 142.465 14.304C142.801 14.736 143.321 14.952 144.025 14.952Z" fill="#161C2D"/>
</svg>
